<svg xmlns="http://www.w3.org/2000/svg" width="24" height="24" fill="none" viewBox="0 0 24 24"><path fill="#F0F0F0" d="M12 21C16.9706 21 21 16.9706 21 12C21 7.02944 16.9706 3 12 3C7.02944 3 3 7.02944 3 12C3 16.9706 7.02944 21 12 21Z"/><path fill="#0052B4" d="M20.4402 8.86957H3.55979C3.198 9.84456 3 10.8991 3 12C3 13.1009 3.198 14.1554 3.55979 15.1304H20.4402C20.802 14.1554 21 13.1009 21 12C21 10.8991 20.802 9.84456 20.4402 8.86957Z"/><path fill="#D80027" d="M12 3C9.27222 3 6.82805 4.21373 5.17757 6.13042H18.8225C17.172 4.21373 14.7278 3 12 3zM18.8225 17.8696H5.17757C6.82805 19.7863 9.27222 21 12 21 14.7278 21 17.172 19.7863 18.8225 17.8696z"/></svg>