<svg xmlns="http://www.w3.org/2000/svg" viewBox="0 0 100 100">
  <path
    d="M86.886,37.361c-0.031-0.196-0.112-0.387-0.253-0.548c-2.019-2.328-4.465-4.558-7.057-6.918
    c-1.544-1.407-3.141-2.862-4.743-4.424c-5.994-5.844-12.714-6.341-17.295-5.729c-4.751,0.635-8.165,2.531-8.522,2.736L6.189,44.714
    c-0.015,0.007-0.027,0.019-0.042,0.028c-0.044,0.026-0.086,0.054-0.126,0.085c-0.023,0.019-0.047,0.036-0.069,0.057
    c-0.038,0.035-0.071,0.073-0.104,0.112c-0.018,0.021-0.036,0.041-0.051,0.063c-0.039,0.054-0.072,0.112-0.1,0.173
    c-0.005,0.011-0.012,0.02-0.016,0.03c-0.03,0.071-0.053,0.146-0.067,0.225c-0.001,0.005-0.004,0.01-0.005,0.016
    c-0.004,0.025-0.001,0.05-0.004,0.076c-0.004,0.038-0.012,0.076-0.012,0.116v10.068c0,0.02,0.004,0.039,0.006,0.059
    c0.002,0.038,0.004,0.076,0.011,0.114c0.005,0.034,0.014,0.067,0.022,0.1c0.009,0.035,0.018,0.069,0.03,0.104
    c0.014,0.036,0.03,0.071,0.047,0.105c0.011,0.022,0.017,0.044,0.029,0.066c0.004,0.006,0.01,0.011,0.014,0.018
    c0.041,0.069,0.088,0.134,0.144,0.194l0.019,0.018c0.006,0.006,0.012,0.011,0.018,0.017l13.423,12.762c0,0,0,0,0.001,0
    c0.002,0.001,0.004,0.003,0.006,0.005c0.061,0.063,0.128,0.116,0.199,0.162c0.006,0.004,0.011,0.01,0.018,0.014
    c0.014,0.008,0.029,0.012,0.042,0.019c0.064,0.035,0.13,0.065,0.199,0.087c0.023,0.007,0.047,0.016,0.071,0.021
    c0.088,0.021,0.177,0.036,0.267,0.037c0,0,0,0,0.001,0h0l0,0c0.08,0,0.159-0.012,0.237-0.028c0.023-0.006,0.044-0.013,0.067-0.02
    c0.056-0.017,0.111-0.036,0.165-0.062c0.014-0.006,0.029-0.009,0.042-0.017L47.89,58.56c3.107,8.989,11.55,15.096,21.245,15.096
    c12.401,0,22.49-10.09,22.49-22.492C91.627,46.114,89.933,41.275,86.886,37.361z M50.778,26.44l8.058,7.905l-3.855,1.843
    l-7.899-7.864L50.778,26.44z M44.305,27.416c-0.088,0.132-0.153,0.281-0.178,0.443c-0.054,0.35,0.062,0.705,0.313,0.955l9.534,9.492
    c0.212,0.211,0.494,0.322,0.78,0.322c0.162,0,0.325-0.035,0.477-0.108l5.986-2.861c0.325-0.156,0.555-0.46,0.614-0.816
    s-0.059-0.719-0.316-0.971l-9.754-9.568c-0.231-0.227-0.543-0.333-0.854-0.311c1.237-0.59,3.807-1.654,7.001-2.07
    c5.926-0.77,11.102,0.956,15.382,5.13c1.629,1.587,3.24,3.056,4.797,4.475c0.617,0.561,1.223,1.114,1.817,1.662
    c-2.754-0.69-5.895-0.7-9.33-0.005c-4.561,0.923-8.009,2.734-8.169,2.819L20.521,59.072l-5.628-6.111
    c-0.009-0.018-0.015-0.037-0.024-0.054c-0.096-0.168-0.231-0.296-0.386-0.392l-5.99-6.504L44.305,27.416z M7.805,48.53l4.084,4.435
    l-4.084,1.309V48.53z M13.506,54.72l5.677,6.165l-0.088,5.144L8.769,56.237L13.506,54.72z M69.135,71.443
    c-8.081,0-15.195-4.705-18.438-11.817c-0.003-0.131-0.024-0.264-0.076-0.393c-0.142-0.354-0.348-1.094-0.513-1.687
    c-0.108-0.384-0.208-0.742-0.289-1c-0.068-0.217-0.204-0.401-0.379-0.537c-0.008-0.031-0.017-0.062-0.024-0.092l-0.083,0.02
    c-0.048-0.029-0.094-0.059-0.146-0.081c-0.301-0.125-0.644-0.109-0.935,0.042L21.286,66.723l0.103-5.604l42.066-23.167
    c0.034-0.018,3.352-1.755,7.608-2.608c5.537-1.109,9.979-0.277,13.199,2.472c0.087,0.074,0.185,0.127,0.284,0.17
    c3.121,3.649,4.868,8.306,4.868,13.178C89.414,62.346,80.316,71.443,69.135,71.443z"
    fill="none"
    stroke="#ffffff"
    stroke-width="1.5"
    stroke-linejoin="round"
    stroke-linecap="round"
  />
</svg>
